<svg width="84" height="80" viewBox="0 0 84 80" fill="none" xmlns="http://www.w3.org/2000/svg">
    <path d="M42 80C65.196 80 84 62.0914 84 40C84 17.9086 65.196 0 42 0C18.804 0 0 17.9086 0 40C0 62.0914 18.804 80 42 80Z" fill="white"/>
    <g filter="url(#filter0_d)">
        <path d="M34.8016 63C32.2067 63 29.6132 63 27.0015 63C27.0015 62.171 27.0015 61.342 27.0015 60.5129C27.8518 60.5129 28.7036 60.5129 29.5539 60.5129C29.5539 59.9623 29.5539 59.4371 29.5539 58.9166C28.6914 58.9166 27.8457 58.9166 27.0015 58.9166C27.0015 57.4151 27.0015 55.9121 27.0015 54.4107C27.4563 54.4107 27.9096 54.4107 28.3644 54.4107C28.3644 53.8554 28.3644 53.3317 28.3644 52.7685C27.8974 52.7685 27.4487 52.7685 27.0015 52.7685C27.0015 50.9696 27.0015 49.1692 27.0015 47.3703C27.8533 47.3703 28.7051 47.3703 29.5554 47.3703C29.5554 46.8577 29.5554 46.3941 29.5554 45.9147C28.693 45.9147 27.8472 45.9147 27.0015 45.9147C27.0015 44.1934 27.0015 42.4721 27.0015 40.7507C27.4563 40.7507 27.9096 40.7507 28.3675 40.7507C28.3675 40.4248 28.3675 40.1242 28.3675 39.8125C27.9005 39.8125 27.4518 39.8125 27.0015 39.8125C27.0015 37.9029 27.0015 35.9949 27.0015 34.0853C27.8533 34.0853 28.7051 34.0853 29.563 34.0853C29.563 33.5964 29.563 33.1376 29.563 32.6487C29.4535 32.6487 29.3501 32.6487 29.2466 32.6487C28.4983 32.6424 27.7484 32.636 27 32.6297C27 31.0175 27 29.4069 27 27.7948C27.4533 27.7948 27.9081 27.7948 28.3644 27.7948C28.3644 27.2252 28.3644 26.6984 28.3644 26.1525C27.8974 26.1525 27.4487 26.1525 27 26.1525C27 24.4945 27 22.8348 27 21.1768C27.7636 21.1831 28.5272 21.191 29.2892 21.1974C29.3759 21.1974 29.4626 21.1974 29.5539 21.1974C29.5539 20.6404 29.5539 20.1152 29.5539 19.582C28.6914 19.582 27.8457 19.582 27 19.582C27 18.7213 27 17.8607 27 17C29.5965 17 32.193 17 34.7986 17C34.7986 17.1772 34.7971 17.3164 34.7986 17.4572C34.8092 18.5125 34.8229 19.5694 34.8305 20.6246C34.8321 20.7639 34.8716 20.8335 35.0176 20.8525C35.2473 20.8825 35.4755 20.941 35.7036 20.9869C40.0646 21.8587 43.7258 24.0088 46.6007 27.5385C49.1941 30.7217 50.6589 34.4159 50.9494 38.5848C51.0803 40.4707 50.9601 42.3534 50.5555 44.2045C49.8178 47.5855 48.3271 50.563 46.0576 53.1023C43.452 56.0165 40.273 57.9151 36.5509 58.8248C35.9896 58.9624 35.4222 59.0732 34.8001 59.2077C34.8016 60.4686 34.8016 61.7343 34.8016 63ZM34.8305 50.0915C38.0826 49.359 42.4968 45.7644 42.3827 39.7303C42.3295 36.9283 41.2875 34.6105 39.4516 32.6424C38.1693 31.2691 36.6148 30.3641 34.8321 29.8879C34.8305 36.6404 34.8305 43.3628 34.8305 50.0915Z" fill="black"/>
    </g>
    <path d="M56 63H57L57 17H56L56 63Z" fill="#FFDC54"/>
    <defs>
        <filter id="filter0_d" x="23" y="17" width="32" height="54" filterUnits="userSpaceOnUse" color-interpolation-filters="sRGB">
            <feFlood flood-opacity="0" result="BackgroundImageFix"/>
            <feColorMatrix in="SourceAlpha" type="matrix" values="0 0 0 0 0 0 0 0 0 0 0 0 0 0 0 0 0 0 127 0"/>
            <feOffset dy="4"/>
            <feGaussianBlur stdDeviation="2"/>
            <feColorMatrix type="matrix" values="0 0 0 0 0 0 0 0 0 0 0 0 0 0 0 0 0 0 0.25 0"/>
            <feBlend mode="normal" in2="BackgroundImageFix" result="effect1_dropShadow"/>
            <feBlend mode="normal" in="SourceGraphic" in2="effect1_dropShadow" result="shape"/>
        </filter>
    </defs>
</svg>
